<svg version="1.1" xmlns="http://www.w3.org/2000/svg" xmlns:xlink="http://www.w3.org/1999/xlink" width="168.71416" height="133.38878" viewBox="0,0,168.71416,133.38878"><g transform="translate(-155.64292,-113.30561)"><g data-paper-data="{&quot;isPaintingLayer&quot;:true}" fill="#3347ff" fill-rule="evenodd" stroke="none" stroke-width="1" stroke-linecap="round" stroke-linejoin="round" stroke-miterlimit="10" stroke-dasharray="" stroke-dashoffset="0" style="mix-blend-mode: normal"><path d="M171.5987,121.0144c2.24231,0.1053 43.69572,-0.22832 43.69572,-0.22832c1.934,0.21146 9.28575,-0.09135 15.23538,7.15652c0,0 3.48638,3.62648 6.01279,14.98836c2.52586,11.36201 -1.50416,15.61353 -1.50416,15.61353c-2.02577,-4.7755 -4.51996,-5.42317 -5.73212,-5.83883c-1.21174,-0.41556 -3.89263,-1.27013 -7.63336,-1.50761l-45.4242,-0.50863c0,0 -13.26226,-0.54646 -18.17614,-15.51472c-0.89285,-2.71893 -2.49548,-8.02037 -2.4276,-12.83308c0.0802,-5.65799 2.2875,-9.03601 2.2875,-9.03601c0.91262,4.1525 4.66233,5.7851 6.88508,6.51363c2.22275,0.72896 4.53844,1.0898 6.78117,1.19509z"/><path d="M173.34999,160.71101c2.24231,0.10542 43.69572,-0.2282 43.69572,-0.2282c1.934,0.21134 9.28585,-0.09144 15.23538,7.1564c0,0 3.48647,3.62657 6.01288,14.98836c2.52574,11.36201 -1.50416,15.61353 -1.50416,15.61353c-2.02577,-4.77541 -4.51996,-5.42317 -5.73224,-5.83883c-1.21174,-0.41556 -3.89263,-1.27001 -7.63336,-1.50761l-45.4242,-0.50863c0,0 -13.26226,-0.54646 -18.17614,-15.51472c-0.89285,-2.71893 -2.49548,-8.02037 -2.4276,-12.83308c0.0802,-5.65799 2.2875,-9.03601 2.2875,-9.03601c0.91262,4.1525 4.66243,5.7851 6.88508,6.51372c2.22284,0.72884 4.53844,1.0898 6.78117,1.19509z"/><path d="M173.93375,201.57517c2.24231,0.10542 43.69572,-0.2282 43.69572,-0.2282c1.934,0.21134 9.28585,-0.09135 15.23538,7.1564c0,0 3.48647,3.62657 6.01288,14.98836c2.52574,11.3621 -1.50416,15.61353 -1.50416,15.61353c-2.02577,-4.77541 -4.51996,-5.42305 -5.73212,-5.83883c-1.21186,-0.41544 -3.89272,-1.27001 -7.63348,-1.50761l-45.42411,-0.50863c0,0 -13.26238,-0.54637 -18.17626,-15.51472c-0.89285,-2.71893 -2.49548,-8.02037 -2.4276,-12.83308c0.0802,-5.65799 2.2875,-9.03601 2.2875,-9.03601c0.91262,4.1525 4.66243,5.78522 6.88508,6.51372c2.22284,0.72884 4.53856,1.0898 6.78117,1.19509z"/><path d="M308.40127,199.87262c-2.24231,-0.10542 -43.69572,0.22832 -43.69572,0.22832c-1.934,-0.21146 -9.28585,0.09135 -15.23538,-7.15652c0,0 -3.48647,-3.62657 -6.01288,-14.98836c-2.52574,-11.36201 1.50416,-15.61353 1.50416,-15.61353c2.02577,4.7755 4.51996,5.42317 5.73224,5.83883c1.21174,0.41556 3.89263,1.27001 7.63336,1.50761l45.4242,0.50863c0,0 13.26226,0.54646 18.17614,15.51472c0.89285,2.71893 2.49548,8.02037 2.4276,12.83308c-0.0802,5.65799 -2.2875,9.03601 -2.2875,9.03601c-0.91262,-4.1525 -4.66243,-5.7851 -6.88508,-6.51363c-2.22284,-0.72896 -4.53844,-1.0898 -6.78117,-1.19509z" data-paper-data="{&quot;index&quot;:null}"/><path d="M308.40127,238.9856c-2.24231,-0.10542 -43.69572,0.2282 -43.69572,0.2282c-1.934,-0.21134 -9.28585,0.09135 -15.23538,-7.15652c0,0 -3.48647,-3.62648 -6.01288,-14.98836c-2.52574,-11.36201 1.50416,-15.61344 1.50416,-15.61344c2.02577,4.77541 4.51996,5.42305 5.73224,5.83883c1.21174,0.41544 3.89263,1.27001 7.63336,1.50761l45.4242,0.50854c0,0 13.26226,0.54646 18.17614,15.51484c0.89285,2.71893 2.49548,8.02037 2.4276,12.83308c-0.0802,5.65799 -2.2875,9.03601 -2.2875,9.03601c-0.91262,-4.1525 -4.66243,-5.78522 -6.88508,-6.51372c-2.22284,-0.72884 -4.53844,-1.0898 -6.78117,-1.19509z" data-paper-data="{&quot;index&quot;:null}"/></g></g></svg>